HIERARCHY
ROOT Hips
{
	OFFSET -0.179506 -22.333345 2.821913
	CHANNELS 6 Xposition Yposition Zposition Zrotation Yrotation Xrotation 
	JOINT LeftUpLeg
	{
		OFFSET 6.951974 -9.140623 -0.681533
		CHANNELS 3 Zrotation Yrotation Xrotation
		JOINT LeftLeg
		{
			OFFSET 3.427654 -37.519855 -0.449580
			CHANNELS 3 Zrotation Yrotation Xrotation
			JOINT LeftFoot
			{
				OFFSET -1.359570 -39.796059 -4.369333
				CHANNELS 3 Zrotation Yrotation Xrotation
				JOINT LeftToe
				{
					OFFSET 2.635814 -5.579078 11.928840
					CHANNELS 3 Zrotation Yrotation Xrotation
					End Site
					{
						OFFSET 0.000000 0.000000 0.000000
					}
				}
			}
		}
	}
	JOINT RightUpLeg
	{
		OFFSET -6.767048 -9.052170 -0.431982
		CHANNELS 3 Zrotation Yrotation Xrotation
		JOINT RightLeg
		{
			OFFSET -3.829005 -38.256897 -0.885003
			CHANNELS 3 Zrotation Yrotation Xrotation
			JOINT RightFoot
			{
				OFFSET 1.577377 -39.841461 -4.231180
				CHANNELS 3 Zrotation Yrotation Xrotation
				JOINT RightToe
				{
					OFFSET -2.537174 -4.814398 12.334795
					CHANNELS 3 Zrotation Yrotation Xrotation
					End Site
					{
						OFFSET 0.000000 0.000000 0.000000
					}
				}
			}
		}
	}
	JOINT Spine
	{
		OFFSET -0.253288 10.896323 -2.669631
		CHANNELS 3 Zrotation Yrotation Xrotation
		JOINT Spine1
		{
			OFFSET 0.548704 13.518043 0.109247
			CHANNELS 3 Zrotation Yrotation Xrotation
			JOINT Spine2
			{
				OFFSET 0.145701 5.292222 2.542457
				CHANNELS 3 Zrotation Yrotation Xrotation
				JOINT Neck
				{
					OFFSET -0.277840 21.387037 -4.285703
					CHANNELS 3 Zrotation Yrotation Xrotation
					JOINT Head
					{
						OFFSET 0.515184 6.496960 5.134897
						CHANNELS 3 Zrotation Yrotation Xrotation
						End Site
						{
							OFFSET 0.000000 0.000000 0.000000
						}
					}
				}
				JOINT LeftShoulder
				{
					OFFSET 7.884473 12.174932 -3.408961
					CHANNELS 3 Zrotation Yrotation Xrotation
					JOINT LeftArm
					{
						OFFSET 9.097692 3.046888 -0.886815
						CHANNELS 3 Zrotation Yrotation Xrotation
						JOINT LeftForeArm
						{
							OFFSET 25.961220 -1.277207 -2.745643
							CHANNELS 3 Zrotation Yrotation Xrotation
							JOINT LeftHand
							{
								OFFSET 24.923361 0.898606 -0.117091
								CHANNELS 3 Zrotation Yrotation Xrotation
								End Site
								{
									OFFSET 0.000000 0.000000 0.000000
								}
							}
						}
					}
				}
				JOINT RightShoulder
				{
					OFFSET -8.175920 11.883285 -3.861528
					CHANNELS 3 Zrotation Yrotation Xrotation
					JOINT RightArm
					{
						OFFSET -9.601238 3.255117 -0.914307
						CHANNELS 3 Zrotation Yrotation Xrotation
						JOINT RightForeArm
						{
							OFFSET -25.374195 -1.332924 -2.140099
							CHANNELS 3 Zrotation Yrotation Xrotation
							JOINT RightHand
							{
								OFFSET -25.529810 0.777228 -0.555919
								CHANNELS 3 Zrotation Yrotation Xrotation
								End Site
								{
									OFFSET 0.000000 0.000000 0.000000
								}
							}
						}
					}
				}
			}
		}
	}
}
MOTION
Frames: 9
Frame Time: 0.033333
-4.673245 -40.118572 89.954895 -119.933954 2.024546 86.298714 8.830948 6.257859 -3.404912 -3.922704 6.584023 19.841194 1.621110 12.812782 -21.994586 nan nan nan -12.749205 -11.561624 -10.993608 3.454117 -13.189335 14.686417 5.878529 -6.100625 -0.443080 nan nan nan -4.925491 2.574083 3.784272 7.160356 -6.095084 10.440271 2.228304 1.186601 -6.775695 7.334377 -16.647077 15.398886 5.647995 -13.404197 20.505070 -11.444485 -14.995486 -0.566541 -66.733454 -49.227725 33.970577 121.594946 -72.042552 -100.992944 -6.867337 -17.953022 -7.400444 10.400026 8.875661 -5.634963 26.161261 18.537803 -9.026301 -75.081754 43.777894 -65.982085 9.743831 6.482605 -4.406984 
-4.675262 -40.124714 89.963837 -119.856471 2.026694 86.355326 8.800604 6.255709 -3.522959 -3.887495 6.600919 19.920616 1.624015 12.782894 -21.971037 nan nan nan -12.770701 -11.563071 -11.025119 3.504001 -13.267055 14.660113 5.862923 -6.063693 -0.337831 nan nan nan -4.990075 2.740847 3.698671 7.280915 -6.164038 10.623261 2.296417 1.057355 -7.009763 7.207709 -16.596798 15.562514 5.690343 -13.263304 20.205555 -11.590114 -15.009238 -0.521067 -66.677105 -49.117251 34.098548 121.711777 -72.102628 -101.577588 -6.895675 -18.014847 -7.786913 10.323177 8.805949 -5.716582 26.123109 18.450697 -8.811407 -75.049243 43.796089 -66.102519 9.584280 6.424437 -4.703445 
-4.740163 -40.088333 89.960342 -119.782071 2.009811 85.861264 8.814048 6.521939 -2.971140 -3.438168 7.016399 20.050314 1.201095 11.734171 -21.954887 nan nan nan -13.025870 -11.583585 -10.368767 3.413253 -14.036382 14.738879 6.358128 -5.118864 -0.642597 nan nan nan -5.102634 2.772450 4.378357 7.155047 -6.029033 10.538992 2.043521 1.051647 -6.978364 0.543784 -20.425294 19.778541 4.979929 -20.042164 13.369218 -10.122750 -14.856176 -0.922371 -68.896401 -49.248792 35.752804 119.809626 -72.299757 -101.169282 -8.315549 -20.082850 -8.206078 10.625285 9.504568 -7.040793 26.359586 16.882217 -8.160945 -75.096282 43.583242 -66.053351 10.502668 7.444944 -4.425189 
-4.751703 -40.085693 89.968842 -119.824754 2.005236 85.828047 8.809302 6.561318 -2.848695 -3.422863 7.030755 19.927811 1.169687 11.756596 -21.935122 nan nan nan -13.019172 -11.555996 -10.319998 3.401080 -14.039075 14.686226 6.390558 -5.102927 -0.652403 nan nan nan -5.097547 2.716369 4.440356 7.132223 -6.049009 10.509719 2.029755 1.098869 -6.981378 0.589029 -20.378518 19.796541 4.954490 -20.116121 13.318975 -10.083483 -14.743461 -1.035408 -68.990264 -49.212066 35.849954 119.724487 -72.362300 -100.982839 -8.331127 -20.161697 -8.137255 10.523480 9.460495 -7.031886 26.589213 16.988423 -8.101976 -75.149543 43.637450 -66.001947 10.484630 7.498129 -4.286699 
-4.784028 -40.064007 90.012527 -119.838206 1.926299 85.498583 8.745477 6.621824 -2.299802 -3.410661 6.902131 19.644377 1.353147 11.730889 -21.882678 nan nan nan -13.167334 -11.592106 -9.823791 3.404450 -14.033866 14.555178 6.546262 -4.904004 -0.787044 nan nan nan -5.400411 2.768630 5.414965 7.349038 -6.090803 9.941741 2.027450 1.390447 -6.963928 0.888709 -20.654802 19.349970 5.161380 -20.458017 13.246291 -9.641273 -13.962951 -1.120564 -70.884621 -49.932111 37.638591 120.444562 -73.449320 -103.326954 -9.049341 -22.502538 -11.337434 10.463575 8.640417 -7.517002 26.843488 17.329308 -7.956866 -75.091253 44.062356 -66.052498 11.265174 7.692953 -4.145302 
-4.789517 -40.027763 90.025864 -119.901448 1.884108 85.281492 8.743159 6.758327 -1.976212 -3.311863 6.872391 19.507709 1.493960 11.575298 -21.846638 nan nan nan -13.267334 -11.499336 -9.575087 3.378278 -14.174396 14.597746 6.670452 -4.576450 -0.927675 nan nan nan -5.362164 2.787136 5.646880 7.336720 -6.087107 9.710970 2.193140 1.062077 -6.798886 0.787295 -19.912225 19.655662 5.162971 -20.972572 12.722802 -9.802420 -13.752775 -1.450883 -70.803585 -49.616107 37.314764 114.857119 -74.368490 -98.132818 -7.172093 -26.877279 -13.344599 9.993885 9.172292 -7.525536 27.260806 17.227366 -7.987076 -74.876060 44.052595 -65.262809 10.989777 8.758748 -4.526224 
-4.783032 -40.007248 90.025002 -119.924242 1.875881 85.251704 8.746756 6.885295 -1.982243 -3.237325 6.838660 19.569809 1.616941 11.485912 -21.838613 nan nan nan -13.274079 -11.511013 -9.591377 3.354743 -14.111708 14.679243 6.707628 -4.525915 -0.926064 nan nan nan -5.277019 2.805856 5.618533 7.324230 -6.088398 9.685487 2.243983 0.764901 -6.753953 0.615730 -19.453790 19.742577 5.204923 -20.922415 12.506182 -9.967977 -13.619491 -1.582815 -70.454629 -49.370323 36.949515 115.374915 -74.363352 -98.601912 -7.357796 -27.004267 -13.245108 9.817244 9.448316 -7.304882 27.331385 17.377550 -8.003893 -74.838906 43.861873 -64.960454 11.112389 8.752390 -4.793945 
-4.780974 -40.003654 90.036758 -119.880718 1.879117 85.245204 8.766019 6.890075 -2.001988 -3.298970 6.766375 19.574795 1.678098 11.495984 -21.835521 nan nan nan -13.272660 -11.543250 -9.540673 3.398094 -14.032286 14.590911 6.736473 -4.612741 -0.814963 nan nan nan -5.439394 2.909842 5.742568 7.344971 -6.047285 9.430241 2.252008 1.013719 -6.573077 0.898276 -19.678603 19.249735 5.385436 -20.734296 12.953656 -9.808891 -14.029729 -1.449147 -70.690143 -49.603758 37.238092 114.350902 -74.388118 -97.509682 -7.035354 -26.876358 -13.463028 10.065607 9.135860 -7.794548 27.051492 16.934533 -7.899242 -74.690630 44.048898 -65.034748 11.246989 8.749640 -4.917615 
-4.783119 -39.995865 90.037376 -119.912673 1.871600 85.233674 8.787842 6.929523 -1.958949 -3.326222 6.764351 19.530514 1.788632 11.471679 -21.800546 nan nan nan -13.247500 -11.522624 -9.528280 3.369679 -13.981616 14.562376 6.783859 -4.598485 -0.829853 nan nan nan -5.431649 2.900340 5.755716 7.319191 -6.027706 9.416427 2.221547 1.051368 -6.558605 0.974846 -19.564947 19.058026 5.383127 -20.696084 13.122182 -9.757691 -14.100887 -1.478003 -70.564316 -49.575079 37.198198 114.216037 -74.349990 -97.372000 -6.771897 -26.914500 -13.580044 10.140339 9.200214 -7.800825 26.984593 16.815134 -7.798195 -74.775207 43.990525 -65.122385 11.102037 8.828777 -4.870525 
